<svg width="1902" height="262" viewBox="0 0 1902 262" fill="none" xmlns="http://www.w3.org/2000/svg">
<path d="M380.6 198.8C435.221 198.8 479.5 154.521 479.5 99.9C479.5 45.279 435.221 1 380.6 1C325.979 1 281.7 45.279 281.7 99.9C281.7 154.521 325.979 198.8 380.6 198.8Z" fill="#8E30EB"/>
<path d="M133.1 261.6C59.7 261.6 0.400024 203 0.400024 131.4C0.400024 59.7 59.7 1.20001 133.1 1.20001C193.4 1.20001 229.6 29.8 255.8 72.5C258.2 76.3 256.5 81.1 252.4 82.8L203.5 102.1C199 103.8 193.9 101.8 191.4 98C178 77 159.7 65.3 133.2 65.3C98.1 65.3 70.1 97 70.1 131.5C70.1 166 98 197.3 133.2 197.3C158.4 197.3 180.1 183.9 191.8 164.6C194.2 160.8 199 158.7 203.5 160.5L252.4 179.8C256.5 181.5 258.3 186 255.8 190.1C229.6 233 192.4 261.6 133.1 261.6Z" fill="black"/>
<path d="M794.4 248.8C794.4 253.3 790.6 257.1 786.1 257.1H734.1C729.6 257.1 725.8 253.3 725.8 248.8V137.8C725.8 133.3 720.3 132.6 717.5 136.4L659.6 229.8C657.2 233.6 651 233.6 648.2 229.8L590.3 136.4C587.9 132.6 582.4 133.3 582.4 137.8V248.8C582.4 253.3 578.6 257.1 574.1 257.1H522.1C517.6 257.1 513.8 253.3 513.8 248.8V13.5C513.8 9 517.6 5.20001 522.1 5.20001H570.3C574.8 5.20001 580.6 8.30001 583 12.1L649.2 109.3C652 113.1 656.1 113.1 658.5 109.3L724.7 12.1C727.5 8.30001 733.3 5.20001 737.8 5.20001H786C790.5 5.20001 794.3 9 794.3 13.5V248.8H794.4Z" fill="black"/>
<path d="M839.2 257.1C834.4 257.1 830.9 253.3 830.9 248.8V13.5C830.9 9 834.3 5.20001 839.2 5.20001H891.2C895.7 5.20001 899.5 9 899.5 13.5V248.8C899.5 253.3 895.7 257.1 891.2 257.1H839.2Z" fill="black"/>
<path d="M1172.1 248.8C1172.1 253.3 1168.3 257.1 1163.8 257.1H1112.8C1108.3 257.1 1102.5 254 1099.7 250.2L1009.8 123.7C1007 120.3 1003.3 120.9 1003.3 125.4V248.8C1003.3 253.3 999.5 257.1 995 257.1H943.7C939.2 257.1 935.4 253.3 935.4 248.8V13.2C935.4 8.70004 939.2 4.90002 943.7 4.90002H995.4C999.9 4.90002 1005.7 8.00002 1008.5 11.4L1098.1 137.9C1100.9 141.7 1104.6 141 1104.6 136.5V13.2C1104.6 8.70004 1108.4 4.90002 1112.9 4.90002H1163.9C1168.4 4.90002 1172.2 8.70004 1172.2 13.2V248.8H1172.1Z" fill="black"/>
<path d="M1201.7 131.3C1201.7 59.6 1261.7 0.700012 1334.7 0.700012C1385 0.700012 1422.9 22.8 1446.3 58.9C1448.7 62.7 1447.3 68.2 1443.5 70.6L1402.2 97.1C1398.4 99.5 1393.2 98.5 1390.1 95C1376 77.4 1358.7 66.1 1334.6 66.1C1299.8 66.1 1271.2 96.8 1271.2 131.2C1271.2 165.7 1299.8 196 1334.6 196C1352.2 196 1370.8 189.8 1380.8 175.3C1383.2 171.5 1380.8 168.1 1376.3 168.1H1336.7C1332.2 168.1 1328.4 164.3 1328.4 159.8V118.8C1328.4 114.3 1332.2 110.5 1336.7 110.5H1455.2C1459.7 110.5 1463.8 113.9 1464.2 118.8C1464.9 126.4 1465.2 138.8 1463.9 150.5C1457.7 214.2 1401.5 261.5 1334.7 261.5C1261.7 261.6 1201.7 203 1201.7 131.3Z" fill="black"/>
<path d="M1683.1 248.8C1683.1 253.3 1679.3 257.1 1674.8 257.1H1502.9C1498.1 257.1 1494.6 253.3 1494.6 248.8V13.2C1494.6 8.70004 1498 4.90002 1502.9 4.90002H1554.6C1559.1 4.90002 1562.9 8.70004 1562.9 13.2V185.5C1562.9 190 1566.3 193.8 1571.2 193.8H1674.9C1679.4 193.8 1683.2 197.6 1683.2 202.1V248.8H1683.1Z" fill="black"/>
<path d="M1778.2 91C1778.2 95.5 1782 99.3 1786.5 99.3H1879.9C1884.4 99.3 1888.2 103.1 1888.2 107.6V155.2C1888.2 159.7 1884.4 163.5 1879.9 163.5H1786.5C1782 163.5 1778.2 167.3 1778.2 171.8V184.9C1778.2 189.4 1782 193.2 1786.5 193.2H1893.7C1898.2 193.2 1902 197 1902 201.5V249.1C1902 253.6 1898.2 257.4 1893.7 257.4H1718.3C1713.8 257.4 1710 253.6 1710 249.1V13.2C1710 8.70004 1713.8 4.90002 1718.3 4.90002H1893.7C1898.2 4.90002 1902 8.70004 1902 13.2V60C1902 64.5 1898.2 68.3 1893.7 68.3H1786.5C1782 68.3 1778.2 72.1 1778.2 76.6V91Z" fill="black"/>
<path d="M471.9 222.8C477 222.8 479.5 225.3 479.5 230.2V249.6C479.5 254.6 477 257 471.9 257H289.2C284.2 257 281.8 254.5 281.8 249.6V230.2C281.8 225.2 284.3 222.8 289.2 222.8H471.9Z" fill="#FF9900"/>
</svg>
